<svg width="170" height="57" viewBox="0 0 170 57" xmlns="http://www.w3.org/2000/svg" xmlns:xlink="http://www.w3.org/1999/xlink"><svg width="170" height="56.467" viewBox="0 0 170 56.467" id="cigna-logo"><defs><path id="aa" d="M0 0h170v56.467H0z"/></defs><clipPath id="ab"><use xlink:href="#aa" overflow="visible"/></clipPath><path clip-path="url(#ab)" fill="#0081C6" d="M20.322 23.535c1.43 0 10.608 4.053 10.608 18.714C30.93 49.28 28.547 55 27.235 55c-.596 0-.835-.597-.835-1.788 0-2.62.954-4.887.954-10.37 0-10.607-4.41-14.9-6.317-17.4-.596-.717-1.073-1.193-1.073-1.55 0-.24.12-.36.358-.36m23.243.358c0 .477-.477.834-1.073 1.55-1.907 2.383-6.317 6.674-6.317 17.402 0 5.482.953 7.748.953 10.37 0 1.19-.238 1.787-.833 1.787-1.43 0-3.695-5.84-3.695-12.752 0-14.66 9.177-18.714 10.608-18.714.238 0 .357.12.357.358"/><path clip-path="url(#ab)" fill="#F7941E" d="M28.31 26.515c0 1.907 1.548 3.457 3.336 3.457 1.907 0 3.337-1.55 3.337-3.457s-1.55-3.457-3.337-3.457c-1.788 0-3.337 1.55-3.337 3.457"/><path clip-path="url(#ab)" fill="#54B948" d="M14.244 21.032c-1.79-.835-3.1-2.384-3.338-3.934 1.31-.834 3.338-.954 5.125-.12 1.79.835 2.266 2.266 2.266 3.458-.834.834-2.146 1.43-4.052.596m5.006-9.297c-1.073-1.788-1.43-3.934-.715-5.483 1.67 0 3.576 1.073 4.768 2.86 1.192 1.79.715 3.338 0 4.41-1.31.24-2.86 0-4.053-1.787m2.623 9.178c-1.43-1.192-2.146-2.98-2.027-4.41 1.43-.477 3.337 0 4.648 1.192 1.43 1.192 1.43 2.622 1.192 3.814-.954.475-2.264.714-3.813-.597m4.29-4.41c-.596-1.908-.24-4.054.834-5.365 1.55.477 3.1 2.026 3.695 3.933.596 2.027-.24 3.338-1.192 4.173-1.31-.118-2.74-.715-3.337-2.74m-7.39 14.183c-1.43.24-2.86-.12-3.696-.953.358-1.073 1.67-2.026 2.98-2.265 1.43-.238 2.265.358 2.86 1.073-.117.955-.595 1.79-2.144 2.146m-3.576-4.17c-1.55-.12-2.98-1.073-3.576-2.266.835-.954 2.385-1.55 3.934-1.43 1.67.238 2.384 1.19 2.742 2.144-.595.954-1.43 1.79-3.1 1.55m-.238-11.68c-1.192-1.074-1.906-2.623-1.788-3.935 1.31-.358 2.98 0 4.172 1.072 1.31 1.073 1.31 2.384 1.073 3.338-.834.357-2.145.597-3.457-.477m8.464-8.462c-.477-1.668-.24-3.456.715-4.41 1.312.358 2.623 1.67 3.1 3.338.476 1.67-.12 2.742-.955 3.576-1.073-.238-2.264-.715-2.86-2.503M2.682 48.447h.357c5.006-1.788 12.276-3.934 22.646-4.648 0-.12.12-.595.12-.953 0-.716-.12-1.55-.12-1.67-10.608.954-17.88 4.055-22.647 6.914-.24.237-.358.237-.358.356m42.433-28.01c0-1.192.477-2.622 2.265-3.457 1.788-.835 3.814-.716 5.125.118-.238 1.55-1.55 3.1-3.337 3.934-1.79.834-3.1.238-4.053-.596m-5.007-6.795c-.715-1.072-1.19-2.62 0-4.41 1.073-1.787 2.98-2.86 4.768-2.86.716 1.55.477 3.695-.715 5.483-1.19 1.67-2.74 1.908-4.052 1.788m-2.503 7.868c-.357-1.192-.238-2.503 1.19-3.814 1.432-1.192 3.34-1.67 4.65-1.192.238 1.43-.596 3.218-2.026 4.41-1.312 1.312-2.742 1.073-3.815.596m-3.694-2.145c-.953-.835-1.787-2.146-1.19-4.172.595-1.906 2.145-3.575 3.694-3.933 1.073 1.19 1.43 3.457.834 5.363-.596 1.908-2.027 2.505-3.337 2.743m8.463 9.178c.478-.714 1.43-1.43 2.86-1.072 1.43.24 2.623 1.192 2.98 2.265-.834.834-2.265 1.192-3.695.953-1.31-.357-1.906-1.19-2.145-2.145m2.86-3.576c.358-.953 1.073-1.906 2.742-2.145 1.55-.12 3.22.356 3.934 1.43-.597 1.192-2.027 2.026-3.577 2.265-1.67.238-2.622-.597-3.1-1.55m-.237-9.654c-.24-.953-.24-2.264 1.073-3.337 1.19-1.073 2.978-1.43 4.17-1.073.24 1.312-.476 2.86-1.787 3.934-1.312 1.073-2.504.833-3.457.477m-7.868-6.555c-.833-.715-1.43-1.788-.953-3.576.477-1.67 1.788-2.98 3.1-3.34.833 1.074 1.19 2.86.714 4.41-.596 1.91-1.67 2.386-2.862 2.505M60.49 48.208c-4.767-2.98-12.038-5.96-22.645-6.913 0 .12-.12.954-.12 1.67 0 .356.12.833.12.952 10.25.716 17.64 2.86 22.646 4.65l.24.117.12-.118c-.12-.24-.12-.24-.36-.358M31.766 10.543c-1.312-.596-2.74-1.788-2.74-4.292 0-2.382 1.072-4.647 2.74-5.6 1.55 1.072 2.742 3.218 2.742 5.6-.12 2.386-1.43 3.578-2.742 4.293"/><path clip-path="url(#ab)" fill="#0081C6" d="M87.666 16.62c0 1.55 1.312 2.862 2.86 2.862 1.55 0 2.86-1.312 2.86-2.86 0-1.55-1.31-2.86-2.86-2.86-1.547 0-2.86 1.19-2.86 2.86m22.647 14.9c0 4.528-1.787 6.315-4.29 6.315-2.504 0-3.934-2.145-3.934-5.96 0-3.933 2.264-7.15 6.316-7.15.834 0 1.43.118 1.906.237v6.557zm.24 7.388v1.432c0 4.053-2.504 5.602-5.483 5.602-2.74 0-4.768-.835-5.363-1.073v3.936c.476.118 2.74.834 5.96.834 5.6 0 9.415-2.385 9.415-10.37V21.986c-.715-.24-3.337-.834-6.436-.834-7.867 0-11.323 5.365-11.323 11.086 0 5.245 2.62 9.417 7.747 9.417 3.217 0 4.886-2.028 5.483-2.743m-26.94-2.502c-1.31.596-3.336.953-5.243.953-5.364 0-9.297-3.813-9.297-9.653s3.933-9.655 9.297-9.655c2.622 0 4.53.596 5.244.954v-4.172c-1.192-.477-3.1-.834-5.72-.834-8.345 0-13.947 5.72-13.947 13.827 0 7.63 5.126 13.707 13.946 13.707 2.622 0 4.528-.357 5.72-.835v-4.292zm70.683-4.887c0 4.53-1.787 6.317-4.29 6.317s-4.053-2.145-4.053-5.96c0-3.933 2.264-7.15 6.316-7.15.834 0 1.43.118 1.906.237v6.557h.12zm5.244 9.655c-.12-1.073-.596-3.933-.596-6.438V22.104c-.715-.238-3.338-.834-6.436-.834-7.867 0-11.323 5.364-11.323 11.085 0 5.244 2.622 9.416 7.747 9.416 3.695 0 5.363-2.383 5.96-3.693h.12c0 .596.237 2.62.237 3.218h4.29v-.12zM92.912 21.627h-4.65v19.548h4.65V21.627zm27.294 19.548V27.707c0-1.788-.118-5.244-.237-6.08h4.17l.238 2.742h.12c.477-.715 2.026-3.22 5.722-3.22 4.41 0 6.912 3.22 6.912 7.272v12.753h-4.647v-11.8c0-2.502-1.43-4.41-3.814-4.41-2.503 0-3.813 2.027-3.813 4.41v11.8h-4.65zM166.455 36.17c.42 0 .83.106 1.23.323.4.216.713.524.937.926.224.398.335.82.335 1.252 0 .434-.11.848-.33 1.246-.22.397-.527.706-.926.926-.396.22-.81.33-1.245.33-.432 0-.85-.11-1.244-.33-.395-.22-.706-.528-.927-.926-.222-.398-.332-.812-.332-1.246 0-.433.113-.854.34-1.253.223-.402.535-.71.936-.927.4-.216.81-.324 1.23-.324m0 .414c-.35 0-.694.09-1.027.27-.333.18-.595.44-.782.772-.188.337-.28.686-.28 1.046 0 .362.09.708.275 1.04.186.33.442.586.775.77.33.185.677.278 1.037.278.36 0 .707-.094 1.04-.277.33-.186.588-.442.77-.772.186-.33.277-.676.277-1.038 0-.36-.095-.71-.28-1.046-.19-.333-.448-.593-.782-.77-.333-.183-.674-.272-1.025-.272m-1.097 3.472v-2.69h.925c.316 0 .545.023.687.073.143.048.254.136.34.26.08.122.125.254.125.394 0 .198-.07.368-.21.515-.142.145-.327.227-.56.244.095.04.17.088.228.144.11.105.24.283.4.534l.326.525h-.53l-.238-.423c-.188-.336-.34-.543-.457-.628-.077-.062-.195-.093-.348-.093h-.255v1.144h-.434zm.434-1.514h.528c.252 0 .423-.04.516-.113.092-.077.137-.175.137-.3 0-.08-.02-.15-.065-.215-.044-.062-.106-.11-.185-.14-.078-.03-.225-.05-.438-.05h-.493v.817z"/></svg></svg>