<svg xmlns="http://www.w3.org/2000/svg" xmlns:xlink="http://www.w3.org/1999/xlink" preserveAspectRatio="xMidYMid" width="702" height="319" viewBox="0 0 702 319">
  <defs>
    <style>

      .cls-3 {
        fill: #d4e1e7;
      }

      .cls-4 {
        fill: #7aa6c1;
      }

      .cls-5 {
        fill: #1582c5;
      }

      .cls-6 {
        font-size: 18px;
      }

      .cls-7 {
        fill: #ffffff;
        text-anchor: middle;
        font-size: 18px;
        font-family: "FontAwesome";
      }

      .cls-11 {
        fill: #ffffff;
        text-anchor: middle;
        font-size: 18px;
        font-family: "ProximaNova-Bold";
        font-weight: bold;
      }
    </style>
  </defs>
  <g id="battery-silversvg">
    <path d="M2.000,319.000 C2.000,319.000 2.000,318.000 2.000,318.000 C2.000,318.000 702.000,318.000 702.000,318.000 C702.000,318.000 702.000,319.000 702.000,319.000 C702.000,319.000 2.000,319.000 2.000,319.000 Z" id="path-1" class="cls-3" fill-rule="evenodd"/>
    <rect id="rect-1" class="cls-4" x="2" width="169" height="59"/>
    <rect id="rect-2" class="cls-5" width="41" height="59"/>
    <text class="cls-6" transform="translate(43 55) scale(1.34)"><tspan x="21px" class="cls-7"></tspan></text>
    <text class="cls-6" x="21px" y="45px"><tspan x="21px" class="cls-7"></tspan></text>
    <text class="cls-6" x="95px" y="35px"><tspan x="95px" class="cls-11">Silver</tspan></text>
    <path d="M171.007,18.999 C171.007,18.999 183.001,31.000 183.001,31.000 C183.001,31.000 171.007,43.001 171.007,43.001 C171.007,43.001 171.007,18.999 171.007,18.999 Z" id="path-2" class="cls-4" fill-rule="evenodd"/>
  </g>
</svg>
