<?xml version="1.0" encoding="utf-8"?>
<!-- Generator: Adobe Illustrator 16.0.4, SVG Export Plug-In . SVG Version: 6.00 Build 0)  -->
<!DOCTYPE svg PUBLIC "-//W3C//DTD SVG 1.1//EN" "http://www.w3.org/Graphics/SVG/1.1/DTD/svg11.dtd">
<svg version="1.1" id="Layer_1" xmlns="http://www.w3.org/2000/svg" xmlns:xlink="http://www.w3.org/1999/xlink" x="0px" y="0px"
	 width="170px" height="56.467px" viewBox="0 0 170 56.467" enable-background="new 0 0 170 56.467" xml:space="preserve">
<g>
	<defs>
		<rect id="SVGID_1_" width="170" height="56.467"/>
	</defs>
	<clipPath id="SVGID_2_">
		<use xlink:href="#SVGID_1_"  overflow="visible"/>
	</clipPath>
	<path clip-path="url(#SVGID_2_)" fill="#0081C6" d="M20.322,23.535c1.43,0,10.608,4.053,10.608,18.714
		c0,7.031-2.383,12.753-3.695,12.753c-0.596,0-0.835-0.597-0.835-1.788c0-2.621,0.954-4.887,0.954-10.369
		c0-10.608-4.41-14.9-6.317-17.402c-0.596-0.716-1.073-1.192-1.073-1.55C19.965,23.654,20.084,23.535,20.322,23.535 M43.565,23.892
		c0,0.477-0.477,0.834-1.073,1.55c-1.907,2.383-6.317,6.674-6.317,17.402c0,5.482,0.953,7.748,0.953,10.369
		c0,1.191-0.238,1.788-0.833,1.788c-1.431,0-3.695-5.841-3.695-12.753c0-14.661,9.177-18.714,10.608-18.714
		C43.446,23.535,43.565,23.654,43.565,23.892"/>
	<path clip-path="url(#SVGID_2_)" fill="#F7941E" d="M28.309,26.515c0,1.907,1.549,3.457,3.337,3.457
		c1.907,0,3.337-1.549,3.337-3.457s-1.55-3.457-3.337-3.457C29.858,23.058,28.309,24.607,28.309,26.515"/>
	<path clip-path="url(#SVGID_2_)" fill="#54B948" d="M14.244,21.032c-1.789-0.835-3.099-2.384-3.338-3.934
		c1.311-0.834,3.338-0.954,5.125-0.119c1.788,0.834,2.265,2.265,2.265,3.457C17.462,21.27,16.15,21.866,14.244,21.032 M19.25,11.735
		c-1.073-1.788-1.43-3.934-0.715-5.483c1.669,0,3.576,1.073,4.768,2.861c1.192,1.788,0.715,3.337,0,4.41
		C21.992,13.761,20.442,13.522,19.25,11.735 M21.873,20.913c-1.431-1.192-2.146-2.98-2.027-4.41c1.43-0.477,3.337,0,4.648,1.192
		c1.43,1.192,1.43,2.622,1.192,3.814C24.732,21.985,23.422,22.224,21.873,20.913 M26.163,16.502
		c-0.596-1.907-0.239-4.053,0.834-5.364c1.55,0.477,3.099,2.026,3.695,3.933c0.596,2.026-0.239,3.337-1.192,4.172
		C28.189,19.125,26.759,18.528,26.163,16.502 M18.773,30.686c-1.431,0.239-2.861-0.119-3.696-0.953
		c0.358-1.073,1.669-2.026,2.98-2.265c1.431-0.238,2.265,0.358,2.861,1.073C20.8,29.495,20.322,30.329,18.773,30.686 M15.197,26.515
		c-1.549-0.12-2.98-1.072-3.576-2.265c0.834-0.954,2.384-1.55,3.933-1.431c1.669,0.239,2.384,1.192,2.742,2.145
		C17.701,25.918,16.866,26.753,15.197,26.515 M14.958,14.833c-1.192-1.073-1.906-2.622-1.788-3.934c1.311-0.357,2.979,0,4.172,1.073
		c1.311,1.073,1.311,2.384,1.073,3.338C17.581,15.667,16.27,15.907,14.958,14.833 M23.422,6.371
		c-0.477-1.669-0.239-3.457,0.715-4.41c1.312,0.357,2.623,1.668,3.099,3.337c0.477,1.669-0.119,2.742-0.954,3.576
		C25.209,8.636,24.018,8.159,23.422,6.371 M2.682,48.446L2.682,48.446h0.357c5.007-1.788,12.277-3.934,22.647-4.648
		c0-0.119,0.119-0.595,0.119-0.953c0-0.716-0.119-1.55-0.119-1.669c-10.608,0.953-17.879,4.054-22.647,6.913
		C2.801,48.327,2.682,48.327,2.682,48.446 M45.115,20.436c0-1.192,0.477-2.622,2.265-3.457c1.788-0.834,3.814-0.715,5.125,0.119
		c-0.238,1.549-1.549,3.099-3.337,3.934C47.379,21.866,46.068,21.27,45.115,20.436 M40.108,13.641c-0.715-1.073-1.191-2.622,0-4.41
		c1.073-1.788,2.98-2.861,4.768-2.861c0.716,1.549,0.477,3.695-0.715,5.483C42.969,13.522,41.42,13.761,40.108,13.641
		 M37.605,21.508c-0.357-1.192-0.238-2.503,1.191-3.814c1.431-1.192,3.338-1.669,4.649-1.192c0.238,1.43-0.596,3.218-2.026,4.41
		C40.108,22.224,38.678,21.985,37.605,21.508 M33.911,19.363c-0.954-0.835-1.788-2.146-1.192-4.172
		c0.596-1.907,2.146-3.576,3.695-3.934c1.073,1.191,1.431,3.457,0.834,5.363C36.652,18.528,35.221,19.125,33.911,19.363
		 M42.373,28.541c0.478-0.715,1.431-1.43,2.861-1.073c1.43,0.239,2.622,1.192,2.979,2.265c-0.834,0.834-2.265,1.192-3.695,0.953
		C43.208,30.329,42.612,29.495,42.373,28.541 M45.234,24.964c0.357-0.953,1.072-1.906,2.741-2.145
		c1.549-0.119,3.219,0.357,3.934,1.431c-0.596,1.192-2.026,2.026-3.576,2.265C46.664,26.753,45.711,25.918,45.234,24.964
		 M44.996,15.311c-0.239-0.954-0.239-2.265,1.073-3.338c1.192-1.073,2.979-1.43,4.172-1.073c0.238,1.312-0.477,2.861-1.788,3.934
		C47.141,15.907,45.949,15.667,44.996,15.311 M37.128,8.755c-0.833-0.715-1.43-1.788-0.953-3.576c0.477-1.669,1.788-2.98,3.1-3.338
		c0.833,1.073,1.191,2.86,0.714,4.41C39.394,8.159,38.321,8.636,37.128,8.755 M60.491,48.208
		c-4.768-2.979-12.039-5.959-22.646-6.913c0,0.119-0.12,0.954-0.12,1.669c0,0.357,0.12,0.834,0.12,0.953
		c10.25,0.716,17.64,2.861,22.646,4.649l0.239,0.118l0.119-0.118C60.729,48.327,60.729,48.327,60.491,48.208 M31.765,10.543
		c-1.312-0.596-2.741-1.788-2.741-4.292c0-2.383,1.073-4.648,2.741-5.602c1.55,1.073,2.742,3.219,2.742,5.602
		C34.388,8.636,33.076,9.828,31.765,10.543"/>
	<path clip-path="url(#SVGID_2_)" fill="#0081C6" d="M87.666,16.621c0,1.55,1.312,2.861,2.861,2.861c1.55,0,2.86-1.312,2.86-2.861
		c0-1.549-1.311-2.86-2.86-2.86C88.979,13.761,87.666,14.953,87.666,16.621 M110.313,31.521c0,4.529-1.787,6.316-4.291,6.316
		c-2.503,0-3.933-2.145-3.933-5.959c0-3.934,2.265-7.152,6.317-7.152c0.834,0,1.431,0.119,1.906,0.238V31.521z M110.553,38.91v1.432
		c0,4.053-2.504,5.602-5.483,5.602c-2.741,0-4.768-0.835-5.363-1.073v3.935c0.476,0.118,2.741,0.834,5.96,0.834
		c5.601,0,9.415-2.385,9.415-10.369V21.985c-0.715-0.239-3.337-0.834-6.436-0.834c-7.867,0-11.323,5.364-11.323,11.085
		c0,5.245,2.621,9.417,7.747,9.417C108.287,41.653,109.956,39.625,110.553,38.91 M83.614,36.408
		c-1.312,0.596-3.337,0.953-5.244,0.953c-5.364,0-9.297-3.814-9.297-9.654c0-5.84,3.933-9.655,9.297-9.655
		c2.622,0,4.529,0.596,5.244,0.954v-4.172c-1.192-0.477-3.099-0.834-5.721-0.834c-8.344,0-13.946,5.721-13.946,13.827
		c0,7.629,5.126,13.707,13.946,13.707c2.622,0,4.528-0.357,5.721-0.835V36.408z M154.296,31.521c0,4.529-1.787,6.316-4.291,6.316
		c-2.502,0-4.052-2.145-4.052-5.959c0-3.934,2.264-7.152,6.316-7.152c0.835,0,1.432,0.119,1.907,0.238v6.557H154.296z
		 M159.54,41.175c-0.119-1.073-0.596-3.933-0.596-6.438V22.104c-0.715-0.238-3.338-0.834-6.436-0.834
		c-7.867,0-11.323,5.364-11.323,11.085c0,5.244,2.622,9.416,7.747,9.416c3.695,0,5.363-2.384,5.96-3.694h0.119
		c0,0.596,0.238,2.621,0.238,3.218h4.29V41.175z M92.912,21.627h-4.649v19.548h4.649V21.627z M120.206,41.175V27.707
		c0-1.788-0.118-5.244-0.237-6.079h4.172l0.237,2.741h0.12c0.477-0.714,2.026-3.218,5.722-3.218c4.409,0,6.912,3.218,6.912,7.271
		v12.753h-4.647V29.375c0-2.502-1.431-4.41-3.814-4.41c-2.504,0-3.814,2.027-3.814,4.41v11.801H120.206z"/>
	<path clip-path="url(#SVGID_2_)" fill="#0081C6" d="M166.455,36.169c0.42,0,0.83,0.107,1.23,0.324
		c0.401,0.216,0.713,0.524,0.937,0.926c0.224,0.399,0.335,0.82,0.335,1.253c0,0.434-0.109,0.848-0.331,1.246
		c-0.22,0.397-0.526,0.706-0.925,0.926c-0.397,0.22-0.812,0.331-1.246,0.331c-0.432,0-0.849-0.111-1.244-0.331
		c-0.396-0.22-0.707-0.528-0.928-0.926c-0.222-0.398-0.332-0.812-0.332-1.246c0-0.433,0.112-0.854,0.338-1.253
		c0.224-0.401,0.536-0.71,0.937-0.926C165.626,36.277,166.035,36.169,166.455,36.169 M166.455,36.584
		c-0.35,0-0.693,0.089-1.026,0.271c-0.332,0.178-0.594,0.438-0.781,0.771c-0.188,0.337-0.281,0.686-0.281,1.046
		c0,0.362,0.092,0.708,0.276,1.039c0.186,0.33,0.442,0.587,0.775,0.772c0.331,0.184,0.677,0.277,1.037,0.277
		c0.361,0,0.707-0.094,1.039-0.277c0.332-0.186,0.589-0.442,0.772-0.772c0.185-0.331,0.276-0.677,0.276-1.039
		c0-0.36-0.095-0.709-0.281-1.046c-0.188-0.333-0.447-0.593-0.781-0.771C167.147,36.673,166.806,36.584,166.455,36.584
		 M165.358,40.056v-2.691h0.925c0.316,0,0.545,0.024,0.687,0.074c0.143,0.049,0.254,0.137,0.339,0.26
		c0.082,0.123,0.126,0.255,0.126,0.395c0,0.198-0.069,0.368-0.211,0.515c-0.141,0.146-0.326,0.228-0.559,0.245
		c0.095,0.041,0.171,0.088,0.228,0.144c0.109,0.105,0.241,0.283,0.399,0.534l0.327,0.525h-0.53l-0.237-0.423
		c-0.188-0.336-0.34-0.543-0.457-0.628c-0.077-0.062-0.195-0.093-0.348-0.093h-0.255v1.144H165.358z M165.792,38.542h0.528
		c0.252,0,0.423-0.039,0.516-0.113c0.092-0.076,0.137-0.174,0.137-0.298c0-0.081-0.021-0.151-0.065-0.216
		c-0.044-0.062-0.106-0.109-0.185-0.14c-0.078-0.031-0.225-0.049-0.438-0.049h-0.493V38.542z"/>
</g>
</svg>
